<svg width="129" height="20" viewBox="0 0 129 20" fill="none" xmlns="http://www.w3.org/2000/svg">
<path fill-rule="evenodd" clip-rule="evenodd" d="M66.3622 16.334C64.5284 10.9083 62.5493 5.53766 60.4613 0.203643C59.5535 0.0203434 58.6457 -0.0346465 57.7378 0.0203434C55.8314 5.20772 53.925 10.3951 52.0185 15.6008C51.492 17.0855 50.7476 18.442 49.749 19.6334C51.3104 19.8167 52.89 19.8717 54.4697 19.8167C54.506 19.6334 54.4697 19.4501 54.3789 19.2668C53.8523 18.8086 53.58 18.222 53.5618 17.5255C53.8523 16.0041 54.2155 14.5193 54.6512 13.0346C56.9571 12.998 59.2448 13.0346 61.5507 13.1263C62.2407 14.721 62.8398 16.334 63.3664 17.9837C63.1303 18.6253 62.7672 19.1752 62.277 19.6334C64.5829 19.8717 66.8706 19.8717 69.1765 19.6334C68.0145 18.7352 67.0703 17.6354 66.3622 16.334ZM55.1959 11.5682C56.249 8.85538 57.1568 6.10589 57.9194 3.31974C58.4278 4.08959 58.8272 4.9511 59.0996 5.88593C59.7895 7.82891 60.425 9.79021 61.006 11.7515C59.0633 11.8065 57.1387 11.7515 55.1959 11.5682Z" fill="white"/>
<path fill-rule="evenodd" clip-rule="evenodd" d="M103.492 1.48673C103.456 6.74743 103.492 11.9898 103.583 17.2505C103.946 18.112 104.455 18.8819 105.126 19.5417C104.001 19.7617 102.857 19.8534 101.677 19.8167C100.587 19.7617 99.4979 19.6884 98.4085 19.6334C98.7717 19.0652 99.153 18.5153 99.5887 17.9837C99.6976 17.6721 99.7884 17.3788 99.8611 17.0672V1.67003H97.5007C95.8848 1.99997 94.5412 2.78816 93.5063 4.05293C93.2339 3.90629 93.1068 3.64967 93.1431 3.31973C93.3065 2.27492 93.4881 1.23011 93.6878 0.203634C98.8988 -0.0346551 104.092 -0.0346551 109.302 0.203634C109.738 1.45007 109.865 2.73317 109.666 4.05293C107.941 2.36657 105.889 1.52339 103.492 1.48673Z" fill="white"/>
<path fill-rule="evenodd" clip-rule="evenodd" d="M14.1621 15.0509C13.9624 16.6273 13.7264 18.1853 13.4359 19.725C8.93303 19.9083 4.44836 19.8534 0 19.5417C0.780732 18.9369 1.36174 18.167 1.72487 17.2505C1.85197 12.2464 1.85197 7.22402 1.72487 2.21994C1.30727 1.46841 0.798888 0.790202 0.181566 0.203643C2.41482 0.0203434 4.66623 -0.0346465 6.89949 0.0203434C6.9358 0.203643 6.89949 0.386943 6.80871 0.570242C6.37295 0.973501 5.97351 1.41342 5.62853 1.85334C5.57406 2.09163 5.50144 2.34825 5.44697 2.58654V18.3503H7.62575C10.0224 18.057 12.0196 16.9756 13.6174 15.1426C13.799 15.0509 13.9805 15.0143 14.1621 15.0509Z" fill="white"/>
<path fill-rule="evenodd" clip-rule="evenodd" d="M30.3214 15.7841C30.3033 17.0855 30.1762 18.3686 29.9583 19.6334C25.4373 19.8167 20.8982 19.8717 16.3409 19.8167C16.7585 19.2118 17.1761 18.5886 17.6119 17.9837C17.7208 17.7454 17.8116 17.5071 17.8842 17.2505C18.0113 12.3564 18.0113 7.48063 17.8842 2.58653C17.7571 2.10995 17.5574 1.67003 17.2487 1.30343C17.0672 0.973493 16.7948 0.716873 16.4317 0.570234C16.3409 0.386934 16.3046 0.203634 16.3409 0.0203348H29.4136C29.4681 1.1018 29.5952 2.16494 29.7768 3.22808C29.8131 3.59468 29.686 3.86963 29.4136 4.05293C28.5966 2.95313 27.5072 2.25659 26.1454 1.94498C24.6384 1.68836 23.1315 1.59671 21.6063 1.67003V9.18531C22.5686 9.22197 23.5491 9.18531 24.5114 9.09367C25.8368 8.83705 27.1077 8.43379 28.3242 7.90222V11.7515C27.2167 11.2199 26.0728 10.7984 24.8745 10.4684H21.6063V18.3503H24.3298C26.3996 18.0753 28.2153 17.2505 29.7768 15.8757C29.9583 15.7841 30.1399 15.7474 30.3214 15.7841Z" fill="white"/>
<path fill-rule="evenodd" clip-rule="evenodd" d="M51.5646 0.203643C50.5842 1.10181 49.7671 2.12829 49.1135 3.31974C47.0255 8.80039 44.9375 14.2627 42.8495 19.725C42.3592 19.8717 41.869 19.8534 41.3969 19.6334C39.3271 13.8595 37.0575 8.17718 34.5882 2.58654C33.8438 1.74336 33.1539 0.900181 32.5002 0.0203434C34.679 -0.0346465 36.8578 0.0203434 39.0366 0.203643C38.855 0.588572 38.6553 0.955171 38.4011 1.30344C38.274 1.67004 38.274 2.03664 38.4011 2.40324C39.9444 6.47249 41.5785 10.5051 43.3034 14.501C45.119 10.4868 46.6079 6.36251 47.7517 2.12829C47.8062 1.41342 47.6246 0.771872 47.207 0.203643C48.6596 -0.0346465 50.1121 -0.0346465 51.5646 0.203643Z" fill="white"/>
<path fill-rule="evenodd" clip-rule="evenodd" d="M90.6012 0.203643C90.1836 0.716882 89.7297 1.21179 89.2395 1.67004C89.0397 2.01831 88.8763 2.38491 88.7856 2.76984C88.84 8.52544 88.7856 14.2627 88.604 20C88.0956 19.9633 87.7143 19.7067 87.4238 19.2668C83.4294 14.2077 79.3805 9.18532 75.2589 4.23623C75.1318 8.50711 75.1318 12.7963 75.2589 17.0672C75.6221 18.057 76.076 18.9735 76.6207 19.8167C75.0955 19.8717 73.5885 19.8167 72.0815 19.6334C72.5718 18.9919 73.0257 18.3136 73.4433 17.6171C73.5704 12.4847 73.5704 7.35233 73.4433 2.21994C72.8986 1.5234 72.3176 0.845192 71.7184 0.203643C73.3525 -0.0163165 74.9866 -0.0346465 76.6207 0.111993C79.9796 4.29122 83.3931 8.41547 86.8791 12.4847C87.0062 8.94703 87.0062 5.39102 86.8791 1.85334C86.4071 1.30344 86.0621 0.698552 85.8805 0.0203434C87.4601 -0.0346465 89.0397 0.0203434 90.6012 0.203643Z" fill="white"/>
<path fill-rule="evenodd" clip-rule="evenodd" d="M128.548 19.2668C127.368 18.4236 126.497 17.3238 125.916 15.9674C124.155 10.67 122.266 5.40935 120.287 0.203643C119.361 0.0203434 118.435 -0.0346465 117.473 0.0203434C115.367 5.6843 113.279 11.3666 111.209 17.0672C110.737 18.002 110.156 18.8452 109.484 19.6334C111.064 19.8717 112.625 19.8717 114.205 19.6334C113.896 19.2851 113.624 18.9185 113.388 18.5336C113.406 16.7189 113.733 14.9409 114.386 13.2179C116.729 12.9796 119.053 12.9796 121.377 13.2179C121.939 14.8126 122.502 16.4073 123.101 17.9837C122.793 18.6069 122.484 19.2118 122.194 19.8167H128.73C128.766 19.5967 128.712 19.4134 128.548 19.2668ZM114.931 11.5682C115.911 8.91037 116.819 6.21587 117.654 3.50304C117.945 3.723 118.163 4.0346 118.29 4.41953C119.125 6.80243 119.942 9.18532 120.741 11.5682C118.798 11.8065 116.874 11.8065 114.931 11.5682Z" fill="white"/>
</svg>
